<?xml version="1.0" encoding="UTF-8"?>
<svg width="752pt" height="752pt" version="1.1" viewBox="0 0 752 752" xmlns="http://www.w3.org/2000/svg">
 <defs>
  <clipPath id="a">
   <path d="m139.21 139.21h473.58v473.58h-473.58z"/>
  </clipPath>
 </defs>
 <path d="m237.63 313.11v150.95c0 38.109 31.062 69.188 69.188 69.188h18.867v-289.33h-18.871c-38.121 0-69.184 31.062-69.184 69.188zm24.52 136.48c-5.1641 0-9.4414-4.2773-9.4414-9.4414 0-5.1484 4.2773-9.4414 9.4414-9.4414 5.2852 0 9.4414 4.2773 9.4414 9.4414 0 5.1641-4.1562 9.4414-9.4414 9.4414zm19.508 19.504c-5.1484 0-9.4414-4.2773-9.4414-9.4414 0-5.1641 4.2773-9.4414 9.4414-9.4414s9.4414 4.2773 9.4414 9.4414c0 5.1641-4.293 9.4414-9.4414 9.4414zm0-38.996c-5.1484 0-9.4414-4.1602-9.4414-9.4414 0-5.1484 4.2773-9.4258 9.4414-9.4258s9.4414 4.2773 9.4414 9.4258c0 5.2812-4.293 9.4414-9.4414 9.4414zm19.504 18.246c-5.2852 0-9.4414-4.2773-9.4414-9.4414 0-5.1641 4.1602-9.4414 9.4414-9.4414 5.1641 0 9.4414 4.2773 9.4414 9.4414-0.011718 5.1523-4.2891 9.4414-9.4414 9.4414zm-19.504-77.371c-17.359 0-31.449-14.09-31.449-31.449s14.09-31.449 31.449-31.449 31.449 14.09 31.449 31.449-14.09 31.449-31.449 31.449z"/>
 <path d="m470.35 393.61c-10.449 0-18.871 8.4375-18.871 18.871 0 10.449 8.4375 18.871 18.871 18.871s18.871-8.4219 18.871-18.871c0-10.438-8.4219-18.871-18.871-18.871z"/>
 <g clip-path="url(#a)">
  <path d="m376 139.21c-130.78 0-236.79 106.01-236.79 236.79s106.01 236.79 236.79 236.79 236.79-106.01 236.79-236.79c0.003907-130.78-106-236.79-236.79-236.79zm-37.738 406.61h-31.449c-45.035 0-81.766-36.73-81.766-81.766v-150.95c0-45.035 36.73-81.766 81.766-81.766h31.449zm188.7-106.93c0 45.035-36.73 81.766-81.766 81.766h-31.453v-314.48h31.449c45.035 0 81.766 36.73 81.766 81.766z"/>
 </g>
 <path d="m445.19 218.76h-18.867v289.33h18.871c38.125 0 69.188-31.078 69.188-69.188v-150.95c-0.003906-38.125-31.066-69.188-69.191-69.188zm25.16 64.156c5.1484 0 9.4414 4.2773 9.4414 9.4414 0 5.1641-4.2773 9.4414-9.4414 9.4414-5.1641 0-9.4414-4.2773-9.4414-9.4414 0-5.1641 4.293-9.4414 9.4414-9.4414zm0 38.996c5.1484 0 9.4414 4.1602 9.4414 9.4414 0 5.1641-4.2773 9.4414-9.4414 9.4414-5.1641 0-9.4414-4.2773-9.4414-9.4414 0-5.2969 4.293-9.4414 9.4414-9.4414zm-19.504-19.508c5.2852 0 9.4414 4.2773 9.4414 9.4414s-4.1602 9.4258-9.4414 9.4258c-5.1641 0-9.4414-4.2773-9.4414-9.4258-0.003906-5.1484 4.2891-9.4414 9.4414-9.4414zm19.504 141.53c-17.359 0-31.449-14.09-31.449-31.449s14.09-31.449 31.449-31.449 31.449 14.09 31.449 31.449-14.09 31.449-31.449 31.449zm28.934-132.08c0 5.1641-4.2773 9.4258-9.4414 9.4258-5.2852 0-9.4414-4.2773-9.4414-9.4258 0-5.1484 4.1602-9.4414 9.4414-9.4414 5.1641-0.003906 9.4414 4.2734 9.4414 9.4414z"/>
 <path d="m281.66 320.65c-10.449 0-18.871 8.4375-18.871 18.871 0 10.434 8.4375 18.871 18.871 18.871 10.434-0.003906 18.867-8.4414 18.867-18.875 0-10.434-8.418-18.867-18.867-18.867z"/>
</svg>
